<svg style="fill:#f5f6f7;width:4.2rem" viewBox="0 0 511.99 511.99" xmlns="http://www.w3.org/2000/svg">
  <g>
  <path d="M510.194 266.076l-19.53-29.305v-50.077c0-.336-.016-.664-.047-.992l-.047-.352a4.35 4.35 0 0 0-.094-.625 3.68 3.68 0 0 0-.078-.398 6.492 6.492 0 0 0-.156-.547c-.031-.133-.062-.273-.109-.406-.062-.18-.141-.359-.203-.531-.031-.125-.094-.25-.141-.367a7.697 7.697 0 0 0-.391-.82c-.047-.094-.109-.18-.156-.273a7.821 7.821 0 0 0-.344-.547 1.81 1.81 0 0 0-.219-.305c-.094-.164-.219-.32-.344-.477l-.234-.281c-.141-.156-.266-.305-.422-.453-.062-.086-.156-.164-.219-.242a11.026 11.026 0 0 0-.531-.469c-.062-.055-.125-.117-.188-.172-.25-.203-.5-.39-.766-.57l-.141-.094a14.913 14.913 0 0 0-.656-.398c-.125-.062-.25-.125-.375-.18-.156-.086-.312-.164-.469-.234s-.297-.125-.438-.18a12.028 12.028 0 0 0-.469-.172c-.156-.047-.312-.102-.469-.148a2.037 2.037 0 0 0-.156-.047l-234.667-63.968c-1.836-.5-3.773-.5-5.609 0L7.852 176.413a10.663 10.663 0 0 0 0 20.571l88.225 24.046v136.248c0 5.891 4.773 10.656 10.656 10.656 25 0 106.311 22.766 135.537 31.547.992.297 2.031.438 3.062.438s2.062-.141 3.062-.438c29.257-8.781 110.662-31.547 135.537-31.547 5.875 0 10.656-4.766 10.656-10.656V221.029l74.748-20.375v36.116l-19.531 29.305a10.732 10.732 0 0 0-1.781 5.914v53.303a10.65 10.65 0 0 0 10.656 10.656h42.656c5.875 0 10.655-4.766 10.655-10.656V271.99a10.61 10.61 0 0 0-1.796-5.914zm-136.919 81.265c-36.844 4.266-111.584 25.969-127.943 30.797-12.383-3.656-58.265-17.016-95.826-25.125v-91.686c0-5.892-4.773-10.665-10.656-10.665-5.891 0-10.664 4.773-10.664 10.665v87.561c-3.851-.641-7.476-1.172-10.789-1.547V226.843l125.13 34.109c.914.25 1.859.375 2.805.375.938 0 1.883-.125 2.805-.375l125.138-34.109v120.498zM234.793 197.359h165.56l-155.021 42.257-194.137-52.921 194.137-52.913 155.021 42.257h-165.56c-5.882 0-10.656 4.773-10.656 10.656 0 5.89 4.773 10.664 10.656 10.664zm255.871 117.279h-21.328v-39.42l10.672-15.992 10.656 15.992v39.42z"/>
  </g>
</svg>
